<?xml version="1.0" standalone="no"?>
<!DOCTYPE svg PUBLIC "-//W3C//DTD SVG 20010904//EN"
 "http://www.w3.org/TR/2001/REC-SVG-20010904/DTD/svg10.dtd">
<svg version="1.0" xmlns="http://www.w3.org/2000/svg"
 width="828.000000pt" height="634.000000pt" viewBox="0 0 828.000000 634.000000"
 preserveAspectRatio="xMidYMid meet">
<metadata>
Created by potrace 1.16, written by Peter Selinger 2001-2019
</metadata>
<g transform="translate(0.000000,634.000000) scale(0.100000,-0.100000)"
fill="#000000" stroke="none">
<path d="M4230 6223 c-9 -2 -35 -45 -58 -96 l-43 -92 -20 25 c-11 14 -40 53
-64 88 -58 80 -75 81 -75 5 0 -84 11 -163 23 -163 6 0 8 34 4 96 l-6 96 49
-68 c27 -38 56 -79 65 -92 9 -12 21 -20 26 -16 6 3 28 43 50 87 53 109 59 113
59 40 0 -74 9 -123 23 -123 12 0 2 199 -10 210 -4 4 -15 5 -23 3z"/>
<path d="M5236 5964 c-20 -53 -34 -100 -29 -105 4 -4 57 15 117 41 61 27 112
47 115 45 2 -3 -8 -35 -22 -73 -29 -74 -33 -96 -16 -90 12 4 79 160 79 184 0
22 -18 17 -129 -31 -57 -26 -105 -44 -107 -42 -2 2 8 36 23 76 17 48 23 75 16
82 -7 7 -22 -22 -47 -87z"/>
<path d="M3164 5971 c-81 -37 -109 -128 -55 -182 24 -24 38 -29 75 -29 88 0
176 65 176 129 0 30 -26 78 -49 91 -30 16 -102 11 -147 -9z m141 -26 c65 -64
-2 -165 -108 -165 -41 0 -72 22 -85 59 -31 89 125 175 193 106z"/>
<path d="M5998 5552 c-54 -26 -98 -50 -98 -54 0 -13 29 -9 60 7 28 15 32 14
80 -17 l50 -33 -5 -47 c-4 -38 -3 -48 9 -48 13 0 35 111 40 202 2 47 -21 45
-136 -10z"/>
<path d="M2142 5191 c-46 -34 -90 -95 -116 -160 -12 -32 -16 -68 -15 -130 2
-86 2 -87 -41 -160 l-43 -73 -22 61 c-21 57 -43 96 -51 88 -2 -2 8 -37 22 -78
27 -79 27 -141 0 -204 -13 -30 -13 -30 -20 30 -8 76 -24 166 -31 173 -12 12
-14 -6 -5 -39 6 -18 10 -58 10 -87 l0 -54 -34 29 c-40 33 -56 70 -56 130 0 55
28 183 41 183 5 0 16 -11 25 -25 9 -14 19 -24 21 -21 6 6 -40 86 -49 86 -4 0
-17 -26 -29 -57 -16 -43 -23 -84 -25 -158 l-3 -100 -45 -5 c-68 -9 -64 -16 11
-24 38 -4 77 -13 89 -21 34 -22 52 -74 58 -165 4 -47 9 -116 11 -155 l5 -70
-23 26 c-16 18 -26 45 -31 80 -6 52 -35 154 -41 147 -1 -2 8 -52 21 -113 29
-135 29 -148 4 -110 -21 32 -27 27 -9 -6 7 -15 7 -24 -1 -34 -7 -8 -9 -18 -6
-24 13 -21 -6 -41 -33 -35 -51 13 -163 79 -198 118 l-35 38 7 87 c3 47 9 94
12 104 5 18 5 18 26 0 l21 -18 -17 27 c-24 38 -21 63 10 95 20 19 22 25 10 20
-10 -4 -20 -7 -23 -7 -12 0 -38 -73 -50 -139 -27 -155 -15 -200 74 -268 l43
-33 -74 6 c-68 6 -75 5 -95 -17 -40 -42 -28 -50 25 -17 l35 21 102 -23 c55
-13 105 -27 110 -31 5 -4 -4 -20 -20 -34 l-29 -26 28 17 c20 12 34 14 48 8 19
-9 16 -15 -45 -77 -36 -37 -61 -67 -55 -67 5 0 30 21 55 47 36 37 48 44 55 32
8 -12 10 -12 19 1 8 13 10 13 10 -2 0 -9 -5 -39 -11 -67 l-10 -50 -87 6 c-82
5 -90 3 -142 -25 -52 -28 -75 -52 -49 -52 7 0 37 14 67 31 78 44 117 43 157
-4 36 -42 50 -47 40 -16 -6 18 -5 19 13 10 32 -17 44 -14 32 8 -17 32 -12 56
20 86 24 23 32 26 45 15 13 -10 15 -9 15 9 0 43 20 22 108 -118 12 -20 27 -53
34 -73 13 -43 32 -52 22 -10 -9 36 -47 106 -89 166 -33 45 -45 86 -26 86 4 0
37 -28 73 -63 171 -164 211 -337 78 -337 -64 0 -102 -22 -184 -107 -42 -43
-76 -73 -76 -66 0 6 11 35 25 65 14 30 24 70 24 93 -1 39 -1 38 -15 -18 -8
-35 -30 -80 -54 -114 -22 -31 -40 -62 -40 -70 0 -7 -5 -13 -10 -13 -11 0 -8
26 10 115 14 64 4 52 -21 -26 -26 -80 -48 -102 -41 -43 3 26 1 35 -7 30 -6 -4
-11 -17 -11 -30 0 -35 -20 -84 -36 -90 -25 -10 -47 8 -110 88 -76 98 -102 146
-109 199 -4 23 -8 57 -11 75 -3 17 -1 32 5 32 5 0 18 -15 30 -32 23 -37 28
-27 6 12 -8 14 -14 40 -15 58 0 18 -5 32 -12 32 -6 0 -30 9 -52 19 -26 13 -66
21 -108 22 -85 3 -99 -7 -21 -16 55 -6 123 -25 151 -44 11 -6 11 -18 0 -62
-14 -54 -15 -54 -55 -57 -96 -7 -249 101 -298 211 -43 96 -42 113 1 83 28 -20
87 -34 174 -41 101 -8 139 -22 178 -64 34 -36 34 -36 28 -8 -5 22 -2 29 19 39
31 14 33 32 3 23 -40 -13 -43 -11 -46 34 -2 28 1 47 10 53 10 6 10 10 -2 18
-9 6 -14 21 -12 40 4 33 -11 40 -27 13 -9 -16 -11 -16 -28 -1 -10 8 -38 26
-61 38 -24 12 -64 40 -88 62 -25 23 -48 38 -52 34 -10 -11 -6 -101 7 -123 8
-14 10 -8 11 35 0 57 7 63 36 31 10 -12 48 -41 84 -64 74 -47 85 -59 94 -98 7
-28 6 -28 -15 -14 -11 8 -27 25 -35 36 -9 12 -20 21 -26 21 -7 0 0 -12 13 -27
14 -16 33 -41 43 -57 l18 -29 -28 7 c-99 24 -102 26 -135 78 -18 28 -35 45
-37 39 -2 -7 5 -26 17 -42 29 -39 26 -49 -14 -49 -43 0 -93 20 -140 55 -19 15
-38 24 -43 21 -25 -15 22 -152 77 -226 66 -88 174 -150 259 -150 46 0 66 -14
80 -57 6 -18 10 -33 9 -33 -1 0 -32 6 -68 14 -42 9 -82 11 -108 6 -106 -19
-200 -159 -201 -298 0 -50 55 -189 81 -202 16 -9 15 -5 -3 43 -11 28 -29 71
-39 95 -11 23 -19 57 -19 75 0 41 44 154 75 192 35 43 43 26 31 -67 -6 -43 -4
-69 9 -107 15 -48 15 -53 -4 -116 -12 -37 -21 -74 -21 -82 0 -26 18 -4 24 32
7 34 7 35 54 30 45 -5 46 -4 15 7 -30 10 -33 14 -33 54 0 24 -7 62 -16 84 -11
27 -14 52 -9 78 4 20 8 59 9 86 2 57 12 64 90 65 70 1 129 -30 205 -108 68
-70 118 -138 108 -147 -7 -7 -83 44 -160 108 -38 31 -68 48 -85 48 -24 0 -23
-2 13 -19 28 -12 50 -34 72 -70 18 -28 48 -61 68 -72 44 -26 44 -32 3 -24 -32
6 -32 5 -13 -10 11 -9 30 -18 43 -22 12 -3 22 -9 22 -14 0 -12 -62 -11 -95 1
-20 8 -26 7 -23 -2 3 -7 34 -18 69 -23 62 -11 63 -11 34 -22 l-30 -11 24 -9
24 -10 -22 -20 c-29 -27 -197 -93 -236 -93 -17 0 -46 4 -64 10 -42 12 -54 5
-17 -10 l27 -10 -32 -47 c-42 -62 -64 -81 -108 -93 -59 -16 -61 -15 -61 45 0
46 -4 60 -25 80 -13 14 -34 25 -47 25 -21 -1 -20 -3 13 -33 55 -49 63 -93 11
-59 l-27 17 28 -36 c15 -20 27 -38 27 -42 0 -3 -16 -15 -35 -27 -47 -29 -74
-21 -136 37 -44 41 -48 48 -35 62 12 12 20 12 41 3 23 -11 24 -10 12 8 -10 18
-8 23 17 43 46 37 24 51 -29 20 -42 -26 -90 -92 -83 -114 2 -6 30 -25 63 -42
35 -19 61 -40 63 -51 3 -14 0 -17 -12 -13 -11 5 -16 1 -16 -14 0 -16 -5 -19
-19 -14 -16 5 -18 2 -14 -15 4 -16 0 -20 -18 -21 l-24 -1 25 -7 c35 -10 125
-3 187 14 66 19 61 21 69 -20 9 -51 21 -43 26 18 4 44 15 67 67 144 70 103
104 140 66 70 -14 -25 -28 -67 -32 -94 -10 -87 27 -213 76 -257 18 -16 21 -17
21 -3 0 9 -5 19 -10 22 -27 17 -53 92 -57 170 -6 93 16 167 56 194 24 15 24
15 18 -14 -22 -99 -21 -131 12 -197 36 -75 38 -95 12 -148 -26 -54 -10 -59 24
-8 18 27 24 43 16 46 -6 2 -11 21 -11 43 0 22 -10 59 -22 82 -37 72 -18 199
33 224 135 66 189 89 189 79 0 -7 -14 -34 -30 -62 -32 -51 -14 -36 41 37 40
51 47 27 12 -44 -36 -73 -57 -136 -49 -144 3 -3 8 3 12 13 18 53 67 147 71
137 9 -25 20 -12 32 40 17 79 28 89 36 35 5 -32 15 -53 33 -68 15 -13 44 -39
64 -58 60 -57 54 -31 -6 29 -34 34 -57 66 -61 87 -9 43 6 41 30 -5 34 -64 67
-95 129 -123 78 -35 117 -68 147 -124 13 -26 28 -46 32 -46 14 0 -35 79 -72
116 -20 19 -62 47 -94 62 -50 23 -57 30 -52 49 3 15 -1 26 -17 37 -36 26 -11
31 37 8 25 -12 45 -18 45 -13 0 5 -24 18 -54 30 -29 12 -66 35 -81 51 l-27 28
41 -5 c49 -7 58 14 11 24 -16 3 -30 9 -30 14 0 27 248 -81 374 -164 99 -66
119 -76 84 -46 -50 45 -68 59 -125 96 -61 41 -56 50 22 39 57 -9 108 -55 182
-163 86 -127 84 -117 27 -109 -75 10 -141 48 -225 130 -92 89 -173 145 -222
153 -50 8 -47 -9 5 -33 122 -55 222 -144 270 -241 26 -53 30 -70 25 -110 -6
-40 -14 -54 -47 -83 -45 -40 -53 -59 -14 -34 14 10 39 37 56 62 31 45 33 73
12 151 -6 21 -5 23 12 16 10 -4 47 -14 81 -21 35 -8 79 -20 98 -28 28 -12 35
-12 35 -2 0 22 -159 253 -196 286 -40 35 -42 40 -10 40 72 0 138 161 106 260
-6 17 -8 -1 -9 -57 -1 -71 -3 -82 -20 -88 -13 -4 -17 -12 -14 -25 4 -14 -6
-24 -44 -43 -63 -32 -128 -42 -184 -27 -77 19 -249 82 -249 91 0 5 33 30 73
57 139 93 179 122 170 122 -5 0 -36 -18 -67 -40 -52 -37 -147 -90 -161 -90
-18 0 2 30 46 72 28 26 46 48 40 48 -7 0 -34 -20 -60 -45 -26 -25 -53 -45 -59
-45 -27 0 -19 22 24 62 26 24 63 61 83 82 94 104 130 126 204 126 65 0 129
-26 172 -70 l38 -39 -26 -12 c-26 -12 -36 -29 -17 -29 17 0 60 23 60 32 0 26
-78 120 -111 134 l-36 17 1 71 c1 65 -2 77 -29 115 -78 113 -79 110 12 86 79
-21 156 -19 201 4 100 51 183 161 162 215 -12 33 -47 72 -57 63 -3 -4 3 -17
14 -30 35 -38 36 -60 4 -105 -40 -54 -131 -122 -180 -133 -51 -11 -114 1 -216
41 -93 37 -145 73 -145 101 0 26 27 25 103 -5 126 -50 203 -56 267 -21 22 12
16 13 -56 8 -92 -6 -143 6 -209 52 l-40 28 38 -7 c20 -3 54 -9 75 -12 53 -9
31 9 -45 36 -61 22 -81 40 -45 40 9 1 33 10 52 21 19 11 26 17 15 13 -11 -4
-47 -10 -80 -13 -33 -4 -70 -12 -82 -19 -13 -7 -23 -8 -23 -3 0 20 31 39 82
51 29 7 82 28 118 45 36 18 76 36 89 40 44 13 100 7 141 -16 43 -24 50 -36 24
-41 -8 -2 1 -8 20 -14 45 -14 48 0 11 45 -30 34 -70 50 -140 52 -27 1 -53 4
-57 6 -5 2 -1 18 8 35 53 102 79 242 54 289 -18 32 -70 20 -168 -37 -68 -40
-43 -38 36 2 51 26 78 35 96 30 24 -6 26 -11 26 -59 0 -107 -48 -221 -112
-268 -63 -46 -162 -86 -173 -69 -2 4 6 24 20 44 13 20 21 36 16 36 -13 0 -38
-32 -52 -65 -12 -29 -13 -29 -17 -7 -8 48 34 106 118 164 l25 18 -30 -11 c-84
-29 -135 -97 -135 -180 0 -34 -8 -58 -35 -99 -19 -30 -35 -65 -35 -78 0 -22 3
-24 35 -19 19 3 37 2 40 -3 7 -11 -30 -50 -47 -50 -12 0 -98 92 -98 105 0 21
47 65 69 65 51 0 56 11 43 94 -10 64 -9 83 3 119 8 23 15 61 15 85 0 45 34
125 67 154 33 30 90 48 153 48 38 0 59 4 55 10 -3 6 -15 10 -26 10 -44 0 -14
18 64 39 125 33 187 84 187 156 0 23 -3 25 -47 25 -83 0 -163 -18 -197 -44
-18 -13 -47 -55 -66 -93 -30 -60 -42 -73 -85 -96 -28 -15 -54 -27 -58 -27 -18
0 76 160 122 208 63 65 75 88 95 184 8 43 29 105 46 138 l30 60 -23 0 c-13 0
-42 -13 -65 -29z m33 -38 c-7 -16 -21 -64 -30 -108 -25 -114 -66 -190 -79
-147 -5 16 0 41 29 142 16 54 -17 2 -35 -56 l-18 -59 -1 40 c-1 53 36 130 85
178 47 45 69 50 49 10z m195 -287 c0 -21 -50 -81 -84 -100 -43 -25 -137 -51
-157 -44 -16 5 32 38 91 63 25 10 54 25 65 33 19 13 18 14 -10 8 -16 -4 -58
-20 -92 -36 -42 -19 -63 -25 -63 -16 0 17 59 73 90 85 25 10 160 15 160 7z"/>
<path d="M6663 4833 c-73 -5 -84 -21 -17 -25 42 -3 48 -7 70 -43 37 -62 37
-63 16 -98 -13 -19 -18 -38 -13 -45 8 -13 18 0 99 136 17 29 29 59 26 67 -6
15 -28 16 -181 8z"/>
<path d="M6995 4288 c-102 -35 -102 -35 -89 -48 7 -7 40 0 97 19 48 16 89 26
92 21 8 -12 45 -133 45 -147 0 -7 -40 -24 -90 -39 -55 -17 -90 -32 -90 -41 0
-16 0 -16 52 1 24 8 69 22 100 31 54 17 57 19 51 44 -16 64 -60 185 -69 187
-5 1 -49 -11 -99 -28z"/>
<path d="M3083 4215 c-172 -53 -271 -214 -233 -376 14 -59 38 -100 84 -141 17
-15 28 -29 26 -31 -3 -3 -32 -18 -65 -35 -79 -40 -136 -101 -176 -186 -28 -60
-33 -81 -32 -145 1 -160 96 -303 220 -332 106 -24 255 -2 351 52 l53 30 32
-25 c75 -58 171 -71 278 -40 55 16 135 60 172 94 20 20 21 19 71 -28 70 -67
125 -86 223 -80 43 3 105 15 138 27 74 26 78 26 90 -1 8 -18 19 -24 57 -26
116 -8 145 37 189 285 43 244 48 266 68 289 25 32 95 64 135 64 30 0 37 -4 42
-27 8 -31 -4 -114 -40 -268 -51 -220 -44 -295 32 -331 47 -22 133 -14 198 19
l50 25 37 -28 c70 -52 176 -45 279 20 l49 30 46 -35 c108 -82 200 -67 322 52
18 18 37 33 41 33 5 0 14 -16 20 -35 16 -49 60 -92 102 -100 107 -20 328 116
328 202 0 30 -8 29 -90 -12 -74 -37 -105 -42 -132 -21 -25 19 -23 74 8 214 70
323 88 418 80 431 -3 5 -24 11 -47 15 -32 5 -52 2 -85 -15 l-44 -21 -65 26
c-74 29 -99 31 -170 12 -77 -20 -126 -49 -182 -108 -102 -109 -153 -256 -153
-444 0 -102 -2 -114 -19 -124 -32 -17 -96 -12 -114 8 -29 31 -27 45 68 486 14
65 25 129 25 142 0 13 8 31 19 41 58 56 53 146 -10 179 -36 18 -63 18 -104 -2
-48 -22 -69 -69 -62 -136 5 -53 5 -54 -26 -68 -45 -20 -87 -69 -87 -102 0 -25
2 -27 30 -21 38 7 38 8 4 -167 -35 -187 -72 -341 -85 -357 -15 -17 -60 -17
-84 0 -26 20 -17 102 34 309 44 177 51 260 26 308 -20 39 -43 50 -108 50 -59
0 -150 -38 -199 -85 -35 -32 -38 -32 -38 8 0 52 -29 72 -100 71 -47 -1 -71 -8
-124 -38 -76 -41 -76 -41 -76 -22 0 26 -58 65 -107 72 -56 8 -149 -9 -207 -38
-23 -11 -63 -42 -89 -69 l-48 -48 -11 27 c-33 85 -37 90 -93 117 -50 25 -64
27 -123 22 -129 -11 -199 -53 -249 -152 -22 -42 -25 -59 -21 -115 7 -91 38
-135 145 -206 45 -31 92 -69 104 -86 30 -42 21 -93 -26 -135 -29 -27 -43 -33
-81 -33 -37 0 -51 5 -75 29 -31 32 -37 69 -20 129 13 43 6 59 -29 67 -64 14
-131 -43 -145 -122 -6 -39 -10 -43 -53 -57 -92 -32 -200 -14 -261 44 -73 70
-67 237 12 342 36 48 105 88 152 88 37 0 55 16 55 46 0 26 -11 35 -59 49 -107
32 -146 250 -64 365 70 98 220 103 238 7 8 -40 -14 -100 -47 -127 -19 -15 -21
-22 -12 -37 18 -29 56 -44 97 -38 78 11 110 55 109 149 -1 96 -47 163 -137
197 -59 22 -168 24 -232 4z m642 -525 c15 -17 17 -31 11 -89 -7 -78 -4 -81 65
-81 23 0 39 -5 39 -11 0 -21 -42 -129 -51 -129 -21 0 -167 101 -186 130 -39
56 -25 160 24 189 30 17 78 13 98 -9z m523 -32 c18 -15 14 -87 -7 -133 -31
-67 -225 -246 -251 -230 -13 8 12 129 42 209 53 138 149 207 216 154z m1672 0
c0 -43 -69 -369 -90 -422 -5 -14 -31 -41 -57 -60 -77 -56 -136 -58 -166 -6
-36 60 -12 272 41 377 44 86 120 132 215 133 53 0 57 -2 57 -22z m-1478 -53
c-4 -56 -60 -326 -78 -377 -19 -55 -39 -76 -94 -101 -97 -42 -231 -22 -259 40
-22 48 -14 59 78 113 170 100 260 193 276 285 10 56 32 87 58 83 19 -3 22 -8
19 -43z"/>
<path d="M7078 3875 c-16 -9 -33 -32 -44 -60 -43 -114 49 -245 144 -206 42 17
62 59 62 128 0 68 -23 114 -69 138 -37 18 -58 19 -93 0z m93 -25 c25 -14 59
-81 59 -117 0 -40 -35 -91 -66 -99 -67 -17 -119 37 -119 123 0 48 4 58 28 79
30 26 66 31 98 14z"/>
<path d="M7000 3430 c0 -5 9 -10 20 -10 19 0 20 -7 20 -94 0 -108 -4 -126 -32
-126 -11 0 -18 -5 -16 -12 6 -16 58 -23 58 -9 0 7 36 11 100 11 l100 0 0 83 0
83 -64 13 c-65 13 -126 42 -126 61 0 5 -13 10 -30 10 -16 0 -30 -4 -30 -10z
m106 -65 c16 -8 50 -18 77 -21 l47 -7 0 -58 0 -59 -84 0 c-47 0 -88 5 -91 10
-8 13 6 150 15 150 4 0 21 -7 36 -15z"/>
<path d="M7030 2997 c0 -7 13 -23 28 -34 28 -21 28 -22 18 -82 -9 -59 -11 -61
-50 -74 -38 -13 -61 -37 -35 -37 25 0 207 61 217 73 14 16 2 30 -83 98 -88 69
-95 74 -95 56z"/>
<path d="M1652 2965 c-5 -22 -13 -70 -16 -107 -10 -110 -40 -189 -92 -247 -26
-29 -61 -59 -78 -68 -18 -9 -26 -18 -18 -21 7 -2 19 2 28 8 12 10 18 9 36 -6
21 -19 21 -19 14 9 -5 22 -1 32 20 52 15 14 32 25 38 25 6 0 16 15 23 33 6 17
21 58 33 91 27 76 46 219 33 249 -10 20 -11 19 -21 -18z"/>
<path d="M1700 2838 c0 -97 -4 -131 -25 -197 -25 -78 -37 -96 -48 -68 -10 23
-6 -138 4 -182 12 -53 4 -64 -22 -32 -12 14 -19 18 -19 9 0 -8 5 -19 12 -26 7
-7 8 -12 3 -12 -5 0 -24 15 -43 33 l-33 32 15 -30 c21 -39 21 -59 1 -47 -55
30 -146 112 -161 145 -21 45 -31 42 -15 -5 6 -18 35 -54 64 -80 28 -25 49 -49
46 -52 -3 -4 -46 -11 -95 -17 -49 -7 -93 -15 -97 -19 -24 -22 69 -70 134 -70
45 0 40 -11 -21 -51 -58 -37 -101 -88 -99 -119 0 -11 4 -9 12 5 7 11 33 41 59
66 37 37 60 50 107 61 63 16 78 14 59 -9 -6 -7 -8 -16 -4 -20 3 -4 13 2 21 13
11 14 14 15 14 4 1 -25 -39 -103 -67 -134 l-27 -30 25 15 c14 9 39 42 57 75
52 96 71 82 32 -23 -27 -72 -101 -149 -153 -159 -37 -6 -76 11 -103 45 -7 9
-13 11 -13 5 0 -15 39 -54 65 -64 57 -22 177 42 205 110 7 16 16 30 19 30 4 0
14 -50 21 -111 19 -152 24 -153 55 -6 9 42 21 77 25 77 14 0 70 -99 70 -125 0
-14 -15 -48 -32 -77 -31 -50 -33 -60 -36 -161 l-4 -107 24 8 c55 21 80 97 77
235 -1 37 0 70 3 73 9 9 98 -132 98 -155 0 -12 -7 -35 -15 -50 -22 -44 -28
-105 -16 -159 7 -27 13 -63 13 -81 1 -37 8 -43 29 -28 26 20 48 72 55 131 4
31 10 59 15 62 4 2 26 -19 48 -49 l40 -53 -14 -49 c-27 -87 -13 -175 37 -246
17 -23 18 -23 32 -5 25 31 39 122 27 169 -5 23 -8 43 -6 45 8 8 70 -49 116
-106 25 -31 54 -59 63 -60 17 -4 17 -2 0 24 l-18 27 24 -13 c38 -20 59 -41 54
-54 -3 -7 2 -19 11 -26 36 -30 31 23 -7 81 -17 24 -50 47 -121 83 -71 35 -97
53 -97 67 0 16 8 19 47 19 60 0 47 13 -20 20 -56 5 -66 20 -24 34 28 10 115
-13 152 -41 18 -13 18 -13 -1 -28 -18 -13 -18 -14 -1 -15 10 0 32 7 49 16 l30
16 -78 35 c-97 44 -132 50 -172 29 -17 -9 -36 -16 -41 -16 -12 0 -96 108 -89
115 3 3 37 -1 77 -10 87 -18 112 -19 146 -3 35 16 32 23 -17 43 -24 9 -64 30
-89 46 -49 31 -86 36 -139 17 -29 -9 -35 -9 -47 7 -7 11 -13 22 -13 27 0 4 36
8 80 8 84 0 119 10 137 39 10 16 2 24 -79 64 -86 44 -92 45 -119 32 -40 -21
-81 -9 -134 37 -49 43 -76 88 -106 177 -28 79 -25 90 13 55 22 -21 29 -24 24
-10 -5 15 -3 17 11 11 51 -21 105 -37 109 -33 2 3 -22 15 -54 27 -52 19 -111
61 -85 61 17 0 237 -72 266 -87 29 -15 57 -65 57 -103 0 -16 -7 -20 -37 -20
-31 -1 -35 -3 -20 -11 9 -5 17 -15 17 -21 0 -17 -52 1 -92 33 -42 33 -53 36
-39 11 8 -15 159 -112 175 -112 10 0 7 156 -4 184 -12 34 -38 49 -161 96 -57
22 -97 40 -89 40 8 1 70 1 138 0 68 -1 122 3 122 8 0 5 -28 17 -62 26 -88 24
-128 39 -128 47 0 3 18 9 40 13 26 4 54 19 81 43 l41 37 68 -74 c45 -50 71
-86 75 -109 15 -76 67 -109 213 -134 76 -13 82 -13 82 3 0 24 -52 93 -94 125
-47 35 -100 54 -156 55 -41 0 -49 4 -80 41 -55 66 -56 69 -18 69 36 0 185 34
195 44 12 11 -19 54 -61 83 -74 52 -211 88 -242 62 -12 -10 -21 -6 -51 22
l-37 34 25 -33 c13 -19 34 -44 47 -56 44 -46 18 -149 -44 -174 -28 -11 -235
-32 -243 -25 -11 8 28 31 79 47 56 18 105 44 97 52 -2 3 -26 -6 -53 -20 -27
-13 -67 -27 -89 -31 -38 -6 -39 -6 -24 12 33 38 35 49 5 30 l-27 -18 12 22 c9
17 9 24 0 27 -6 2 -11 16 -11 30 0 22 -6 15 -27 -31 -18 -40 -29 -54 -34 -45
-20 31 -3 205 22 233 5 5 9 -14 10 -45 1 -50 2 -52 10 -25 5 17 7 51 3 78 -3
26 -2 47 3 47 8 0 83 -125 83 -139 0 -12 125 -51 160 -50 29 1 25 3 -30 18
-117 30 -162 92 -185 252 -8 57 -15 122 -15 144 0 22 -5 47 -10 55 -7 10 -10
-23 -10 -102z m474 -339 c45 -11 143 -86 129 -100 -4 -4 -46 -15 -93 -25 -101
-20 -140 -11 -140 31 l0 26 88 -7 c57 -4 84 -3 77 3 -17 17 -76 33 -120 33
-50 0 -77 22 -48 39 23 13 54 14 107 0z m-572 -214 c4 -5 4 -21 1 -36 -4 -21
1 -31 26 -48 25 -18 31 -20 31 -7 0 9 -6 16 -14 16 -24 0 -30 22 -11 37 27 19
35 16 35 -12 0 -14 5 -25 10 -25 6 0 10 -9 10 -21 0 -11 -4 -17 -10 -14 -6 4
-17 2 -24 -5 -11 -8 -24 -2 -61 30 -25 22 -52 40 -58 41 -7 0 -37 0 -67 0 -67
-2 -101 15 -49 23 19 3 50 7 69 9 19 2 -3 5 -50 6 -61 1 -81 4 -70 11 19 13
222 9 232 -5z"/>
<path d="M2897 2706 c-65 -18 -117 -61 -150 -127 l-28 -54 3 -221 3 -221 30
-49 c19 -30 49 -60 79 -79 l49 -30 237 0 237 0 49 30 c30 19 60 49 79 79 l30
49 3 211 c2 130 -1 225 -7 247 -16 55 -65 115 -118 146 -48 28 -49 28 -248 30
-143 2 -214 -1 -248 -11z m478 -59 c21 -12 53 -42 70 -65 l30 -44 0 -216 c0
-249 -6 -272 -84 -327 l-43 -30 -228 0 -228 0 -43 30 c-78 55 -84 78 -84 327
l0 216 30 44 c17 23 49 53 70 65 38 22 51 23 255 23 204 0 217 -1 255 -23z"/>
<path d="M3030 2499 c-88 -36 -137 -166 -96 -262 18 -44 77 -94 128 -107 184
-50 321 164 201 314 -47 58 -159 84 -233 55z m160 -47 c50 -26 84 -97 76 -155
-10 -64 -54 -113 -115 -126 -68 -14 -112 0 -156 51 -30 36 -35 49 -35 92 0
122 121 195 230 138z"/>
<path d="M6940 2590 c0 -5 18 -15 41 -21 34 -11 39 -16 34 -33 -4 -12 -9 -44
-12 -72 -4 -39 -1 -54 12 -67 22 -22 58 -22 79 2 20 22 59 143 48 152 -8 7
-171 49 -189 49 -7 0 -13 -4 -13 -10z"/>
<path d="M5327 2544 c-4 -4 -7 -79 -7 -166 0 -140 2 -159 17 -165 9 -4 18 -2
20 4 3 7 18 5 46 -4 78 -28 137 24 137 121 0 41 -5 53 -34 82 -37 37 -65 42
-108 20 l-27 -14 -3 61 c-2 46 -7 63 -18 65 -9 1 -19 0 -23 -4z m148 -161 c21
-20 16 -110 -6 -124 -22 -14 -66 -10 -83 7 -21 21 -21 92 1 116 20 23 66 23
88 1z"/>
<path d="M3814 2440 c-39 -15 -64 -59 -64 -109 0 -61 17 -92 63 -114 45 -22
84 -16 123 19 24 23 25 27 11 41 -13 14 -17 13 -36 -6 -28 -28 -86 -29 -101
-2 -23 44 -15 50 68 48 73 -1 77 0 80 22 11 72 -72 130 -144 101z"/>
<path d="M4015 2425 c-43 -42 -34 -69 40 -112 28 -16 50 -36 50 -44 0 -20 -53
-24 -74 -4 -16 13 -20 13 -30 2 -17 -22 -3 -45 35 -57 60 -20 114 11 114 65 0
35 -20 58 -60 70 -32 9 -50 24 -50 40 0 21 31 27 56 10 22 -14 54 -11 54 5 0
5 -12 18 -26 29 -36 28 -79 27 -109 -4z"/>
<path d="M4238 2434 c-79 -43 -75 -185 6 -219 20 -8 44 -15 54 -15 25 0 86 42
90 62 5 25 -29 31 -45 8 -29 -41 -113 -18 -113 31 0 18 6 20 43 19 23 -1 61
-1 84 -1 42 1 42 1 36 34 -9 47 -20 65 -53 82 -36 19 -67 19 -102 -1z"/>
<path d="M4525 2440 c-11 -5 -35 -6 -52 -3 l-33 5 0 -111 c0 -93 3 -113 16
-118 25 -9 34 16 34 94 0 67 2 74 25 89 21 13 31 15 50 6 23 -10 24 -17 27
-99 3 -83 4 -88 26 -91 21 -3 22 -1 22 91 0 76 -4 99 -17 116 -21 24 -69 35
-98 21z"/>
<path d="M4863 2440 c-39 -16 -65 -69 -60 -122 5 -63 28 -95 78 -108 33 -9 45
-8 63 4 15 9 28 11 37 5 35 -22 39 -12 39 106 0 107 -1 115 -19 115 -11 0 -22
-6 -24 -12 -4 -10 -7 -10 -15 0 -12 17 -71 24 -99 12z m90 -55 c33 -32 29
-103 -7 -127 -20 -14 -56 -8 -76 12 -24 24 -26 77 -4 108 18 26 65 30 87 7z"/>
<path d="M5854 2431 c-57 -34 -69 -134 -24 -189 28 -34 82 -47 118 -28 21 11
32 12 40 4 6 -6 17 -8 24 -6 10 4 13 33 13 114 0 105 -1 109 -22 112 -13 2
-23 -2 -23 -8 0 -7 -11 -5 -30 5 -38 20 -58 19 -96 -4z m106 -51 c43 -43 13
-130 -45 -130 -54 0 -84 78 -49 128 19 28 67 29 94 2z"/>
<path d="M6666 1923 c-12 -13 -5 -22 34 -44 44 -25 45 -20 -17 -117 l-34 -53
-45 26 c-68 40 -57 4 14 -41 31 -20 69 -45 84 -55 19 -14 29 -16 34 -7 7 11
-12 30 -52 54 -16 10 -15 14 14 65 56 95 55 95 95 70 38 -23 61 -27 55 -10 -3
10 -64 51 -159 108 -9 6 -19 7 -23 4z"/>
<path d="M6130 1252 c-102 -46 -142 -152 -81 -213 53 -53 146 -30 206 50 54
75 14 172 -72 170 -21 0 -45 -3 -53 -7z m101 -41 c16 -16 29 -40 29 -53 0 -56
-75 -128 -133 -128 -35 0 -87 49 -87 82 0 33 35 85 72 108 47 28 84 26 119 -9z"/>
<path d="M5756 977 c-72 -51 -91 -91 -56 -119 12 -10 30 -18 40 -18 13 0 17
-5 13 -20 -7 -28 14 -50 48 -50 24 0 139 62 139 75 0 10 -111 175 -118 175 -4
-1 -34 -20 -66 -43z"/>
<path d="M2882 813 c-42 -87 -50 -113 -34 -113 4 0 59 18 121 41 62 22 114 39
116 37 1 -1 -13 -36 -31 -77 -24 -50 -32 -77 -25 -84 7 -7 25 21 57 87 25 54
43 100 40 103 -6 7 -98 -19 -151 -42 -41 -18 -95 -35 -95 -30 0 2 16 38 35 81
40 88 39 84 22 84 -7 0 -32 -39 -55 -87z"/>
<path d="M3433 642 c-20 -47 -21 -47 -70 -27 -49 21 -96 19 -117 -4 -21 -23
-15 -49 17 -78 23 -21 97 -53 121 -53 19 0 89 181 76 194 -6 6 -16 -5 -27 -32z"/>
<path d="M3678 594 c-79 -33 -84 -130 -9 -179 104 -70 244 -19 228 81 -8 45
-30 71 -82 95 -48 22 -88 23 -137 3z m126 -18 c93 -39 86 -160 -10 -172 -61
-8 -115 14 -139 58 -19 35 -19 38 -2 73 25 53 83 69 151 41z"/>
<path d="M4664 540 c-13 -32 -21 -40 -43 -40 -14 -1 -42 -3 -62 -6 -33 -5 -38
-2 -59 30 -12 20 -28 36 -36 36 -8 0 -14 -2 -14 -5 0 -16 134 -205 143 -202
14 4 23 22 72 128 37 81 41 99 25 99 -6 0 -17 -18 -26 -40z"/>
<path d="M4120 547 c-41 -10 -56 -41 -36 -72 18 -27 29 -31 109 -40 51 -6 57
-9 57 -30 0 -48 -5 -50 -93 -47 -58 2 -78 0 -67 -8 8 -5 52 -10 96 -10 l81 0
7 38 c3 20 6 67 6 104 l0 66 -65 4 c-36 1 -79 0 -95 -5z"/>
</g>
</svg>
